<?xml version="1.0" encoding="iso-8859-1"?>
<!-- Uploaded to: SVG Repo, www.svgrepo.com, Generator: SVG Repo Mixer Tools -->
<svg fill="#000000" height="800px" width="800px" version="1.1" id="Layer_1" xmlns="http://www.w3.org/2000/svg" xmlns:xlink="http://www.w3.org/1999/xlink" 
	 viewBox="0 0 512 512" xml:space="preserve">
<g>
	<g>
		<g>
			<path d="M366.933,341.333h-25.6c-1.195,0-29.355,0.222-48.7,19.567c-19.345,19.345-19.567,47.505-19.567,48.7v25.6
				c0,4.71,3.814,8.533,8.533,8.533h25.6c1.195,0,29.355-0.222,48.7-19.567c19.345-19.345,19.567-47.505,19.567-48.7v-25.6
				C375.467,345.156,371.652,341.333,366.933,341.333z M358.4,375.467c0,0.222-0.171,22.229-14.566,36.634
				c-14.157,14.157-36.113,14.558-36.651,14.566h-17.05V409.6c0-0.222,0.171-22.229,14.566-36.634
				c14.259-14.259,36.446-14.566,36.634-14.566H358.4V375.467z"/>
			<path d="M153.6,392.533H128c-4.719,0-8.533,3.823-8.533,8.533v25.6c0,1.195,0.222,29.355,19.567,48.7
				c19.345,19.345,47.505,19.567,48.7,19.567h25.6c4.719,0,8.533-3.823,8.533-8.533v-25.6c0-1.195-0.222-29.355-19.567-48.7
				C182.955,392.755,154.795,392.533,153.6,392.533z M204.8,477.867h-17.067c-0.213,0-22.229-0.171-36.634-14.566
				c-14.259-14.259-14.566-36.437-14.566-36.634V409.6H153.6c0.213,0,22.229,0.171,36.634,14.566
				c14.259,14.259,14.566,36.437,14.566,36.634V477.867z"/>
			<path d="M256,110.933c9.412,0,17.067,7.654,17.067,17.067c0,4.71,3.814,8.533,8.533,8.533c4.719,0,8.533-3.823,8.533-8.533
				c0-15.855-10.914-29.107-25.6-32.922v-1.212c0-4.71-3.814-8.533-8.533-8.533s-8.533,3.823-8.533,8.533v1.212
				c-14.686,3.814-25.6,17.067-25.6,32.922c0,18.825,15.309,34.133,34.133,34.133c9.412,0,17.067,7.654,17.067,17.067
				s-7.654,17.067-17.067,17.067c-9.412,0-17.067-7.654-17.067-17.067c0-4.71-3.814-8.533-8.533-8.533s-8.533,3.823-8.533,8.533
				c0,15.855,10.914,29.107,25.6,32.922v1.212c0,4.71,3.814,8.533,8.533,8.533s8.533-3.823,8.533-8.533v-1.212
				c14.686-3.814,25.6-17.067,25.6-32.922c0-18.825-15.309-34.133-34.133-34.133c-9.412,0-17.067-7.654-17.067-17.067
				C238.933,118.588,246.588,110.933,256,110.933z"/>
			<path d="M469.333,0H42.667C19.14,0,0,19.14,0,42.667v221.867C0,288.06,19.14,307.2,42.667,307.2h196.267v196.267
				c0,4.71,3.814,8.533,8.533,8.533s8.533-3.823,8.533-8.533v-204.8c0-4.71-3.814-8.533-8.533-8.533h-204.8
				c-14.114,0-25.6-11.486-25.6-25.6V42.667c0-14.114,11.486-25.6,25.6-25.6h426.667c14.114,0,25.6,11.486,25.6,25.6v221.867
				c0,14.114-11.486,25.6-25.6,25.6H281.6c-4.719,0-8.533,3.823-8.533,8.533s3.814,8.533,8.533,8.533h187.733
				c23.526,0,42.667-19.14,42.667-42.667V42.667C512,19.14,492.86,0,469.333,0z"/>
			<path d="M426.667,264.533c0-23.526,19.14-42.667,42.667-42.667c4.719,0,8.533-3.823,8.533-8.533V93.867
				c0-4.71-3.814-8.533-8.533-8.533c-23.526,0-42.667-19.14-42.667-42.667c0-4.71-3.814-8.533-8.533-8.533H93.867
				c-4.719,0-8.533,3.823-8.533,8.533c0,23.526-19.14,42.667-42.667,42.667c-4.719,0-8.533,3.823-8.533,8.533v119.467
				c0,4.71,3.814,8.533,8.533,8.533c23.526,0,42.667,19.14,42.667,42.667c0,4.71,3.814,8.533,8.533,8.533h324.267
				C422.852,273.067,426.667,269.244,426.667,264.533z M101.794,256c-3.755-26.121-24.465-46.839-50.594-50.594V101.794
				c26.129-3.755,46.839-24.474,50.594-50.594h308.412c3.755,26.121,24.465,46.839,50.594,50.594v103.612
				c-26.129,3.755-46.839,24.474-50.594,50.594H101.794z"/>
		</g>
	</g>
</g>
</svg>